<svg xmlns="http://www.w3.org/2000/svg" viewBox="0 0 32 32" width="32" height="32">
  <defs>
    <linearGradient id="bg" x1="0%" y1="0%" x2="100%" y2="100%">
      <stop offset="0%" style="stop-color:#0f3460"/>
      <stop offset="100%" style="stop-color:#16213e"/>
    </linearGradient>
  </defs>
  <rect width="32" height="32" rx="6" fill="url(#bg)"/>
  <!-- Open book icon (BookOpen) -->
  <path d="M6 9.5 C6 9.5 11 8 16 10 C21 8 26 9.5 26 9.5 L26 23.5 C26 23.5 21 22 16 24 C11 22 6 23.5 6 23.5 Z" fill="none" stroke="white" stroke-width="1.8" stroke-linejoin="round"/>
  <line x1="16" y1="10" x2="16" y2="24" stroke="white" stroke-width="1.8"/>
  <path d="M10 12 L13.5 11.2" stroke="white" stroke-width="1.3" stroke-linecap="round"/>
  <path d="M10 15 L13.5 14.2" stroke="white" stroke-width="1.3" stroke-linecap="round"/>
  <path d="M10 18 L13.5 17.2" stroke="white" stroke-width="1.3" stroke-linecap="round"/>
  <path d="M22 12 L18.5 11.2" stroke="white" stroke-width="1.3" stroke-linecap="round"/>
  <path d="M22 15 L18.5 14.2" stroke="white" stroke-width="1.3" stroke-linecap="round"/>
  <path d="M22 18 L18.5 17.2" stroke="white" stroke-width="1.3" stroke-linecap="round"/>
</svg>
